<?xml version="1.0" encoding="UTF-8"?><svg id="a" xmlns="http://www.w3.org/2000/svg" viewBox="0 0 260 260"><path d="M90.08,6c16.32,0,30.38,5.7,38.57,15.65,12.61,15.31,12.58,21.79,12.54,29.99-.03,7.02-.07,14.99,6.17,28.19,1.52,3.21,6.13,12.97,15.07,12.97,8.3,0,15.5-8.11,25.45-19.32,7.3-8.23,15.58-17.55,25.78-25.31,6.31-4.8,13.1-7.34,19.63-7.34,9.9,0,16.75,5.67,18.4,11.27,1.49,5.06-1.07,10.03-7.2,13.99-13.22,8.53-21.63,21.8-23.69,37.35-2.79,21.1,6.38,44.56,25.81,66.05,4.97,5.5,10.19,13.66,6.79,21.31-3.3,7.44-14.44,13.04-25.91,13.04-5.62,0-10.72-1.38-14.34-3.89-3.88-2.68-6.1-6.62-6.6-11.71-1.31-13.32-11.36-21.28-26.9-21.28-8.78,0-18.76,2.59-28.11,7.3-9.92,5-18.35,11.9-24.37,19.97-9.57,12.83-12.3,27.45-7.9,42.29,3.5,11.78,1.94,15.66,1.1,16.78-.85,1.13-2.71,1.71-5.54,1.71-7.12,0-17.96-3.58-29.44-7.36-14.17-4.68-28.83-9.51-41.35-9.51-1.34,0-2.64,.06-3.88,.17-.24,.02-.47,.03-.71,.03-5.25,0-11.26-5.4-16.92-15.2-7.09-12.28-12.91-30.36-15.57-48.36-2.66-17.98-1.72-33.09,2.51-40.42,2.21-3.83,4.6-4.32,6.44-4.32,1.4,0,3,.35,4.78,1.03,4.46,1.72,8.62,2.59,12.38,2.59,6.73,0,12.42-2.8,16.47-8.08,17.27-22.56,.95-85.34-.97-92.42-1.2-4.44-.3-8.68,2.69-12.58,6.66-8.71,22.26-14.56,38.81-14.56m0-5c-26.3,0-51.57,14.05-46.32,33.44,7.64,28.23,18.88,94.2-10.67,94.2-3.07,0-6.58-.71-10.58-2.25-2.4-.93-4.6-1.36-6.57-1.36-32.54-.02-8.33,118.3,23.53,118.3,.39,0,.77-.02,1.16-.05,1.11-.1,2.26-.15,3.42-.15,21.99,0,53.84,16.88,70.78,16.88,10.06,0,14.86-5.95,9.23-24.91-10.86-36.55,28.99-63.13,55.58-63.13,11.67,0,20.78,5.12,21.92,16.77,1.38,14.08,13.27,20.11,25.92,20.11,21.64,0,45.51-17.63,22.83-42.71-35.94-39.74-29.69-78.7-3.12-95.84,19.91-12.85,6.98-34.46-13.9-34.46-6.98,0-14.83,2.41-22.66,8.36-23.37,17.77-37.13,43.61-48.2,43.61-3.73,0-7.16-2.93-10.55-10.11-13.44-28.44,4.69-30-19.37-59.22C122.39,6.18,106.04,1,90.08,1h0Z"/></svg>